<?xml version="1.0" encoding="iso-8859-1"?>
<!-- Generator: Adobe Illustrator 19.0.0, SVG Export Plug-In . SVG Version: 6.00 Build 0)  -->
<svg version="1.1" id="Capa_1" xmlns="http://www.w3.org/2000/svg" xmlns:xlink="http://www.w3.org/1999/xlink" x="0px" y="0px"
	 viewBox="0 0 512 512" style="enable-background:new 0 0 512 512;" xml:space="preserve">
<path style="fill:#FEA832;" d="M412.32,511.968H99.68c-21.426,0-40.026-15.249-44.229-36.259l-19.354-97.767
	c-1.608-8.127,3.676-16.019,11.802-17.627c8.125-1.607,16.019,3.675,17.628,11.802l19.348,97.738
	c1.401,7.007,7.63,12.114,14.805,12.114h312.64c7.175,0,13.403-5.107,14.811-12.143l19.342-97.709
	c1.608-8.127,9.498-13.409,17.628-11.802c8.126,1.609,13.41,9.5,11.802,17.627l-19.348,97.738
	C452.347,496.719,433.746,511.968,412.32,511.968z"/>
<g>
	<path style="fill:#FEDB41;" d="M391,420.968c-17.273,0-33.597-7.386-45-20.312c-11.404,12.926-27.728,20.312-45,20.312
		c-17.273,0-33.597-7.386-45-20.312c-11.404,12.926-27.728,20.312-45,20.312c-17.273,0-33.597-7.386-45-20.312
		c-11.404,12.926-27.728,20.312-45,20.312c-22.02,0-42.471-12.226-53.136-30.51c-2.593,0.339-5.218,0.51-7.864,0.51
		c-33.084,0-60-26.916-60-60c0-31.673,24.669-57.692,55.801-59.855c22.643-26.574,51.603-48.671,84.168-64.158
		c35.745-17.001,75.868-25.987,116.031-25.987s80.286,8.986,116.031,25.987c32.565,15.488,61.525,37.584,84.168,64.158
		C487.331,273.275,512,299.295,512,330.968c0,33.084-26.916,60-60,60c-2.646,0-5.271-0.171-7.864-0.51
		C433.471,408.742,413.02,420.968,391,420.968z M346,370.221c8.617,0,16.654,3.671,22.051,10.071
		c5.722,6.784,14.086,10.676,22.949,10.676c13.87,0,26.466-9.291,29.95-22.091c1.121-4.119,3.945-7.566,7.764-9.476
		s8.271-2.102,12.238-0.529c3.507,1.391,7.225,2.096,11.048,2.096c16.542,0,30-13.458,30-30s-13.458-30-30-30
		c-0.649,0-1.308,0.021-1.953,0.062c-4.886,0.313-9.609-1.777-12.666-5.597c-42.33-52.889-110.136-84.465-181.381-84.465
		s-139.051,31.576-181.381,84.465c-3.058,3.82-7.782,5.909-12.666,5.597c-0.646-0.041-1.304-0.062-1.953-0.062
		c-16.542,0-30,13.458-30,30s13.458,30,30,30c3.823,0,7.541-0.705,11.048-2.096c3.969-1.573,8.42-1.381,12.238,0.529
		s6.643,5.356,7.764,9.476c3.484,12.801,16.08,22.091,29.95,22.091c8.863,0,17.228-3.892,22.95-10.677
		c5.396-6.399,13.433-10.07,22.05-10.07s16.654,3.671,22.051,10.071c5.722,6.784,14.086,10.676,22.949,10.676
		s17.228-3.892,22.95-10.677c5.396-6.399,13.433-10.07,22.05-10.07s16.654,3.671,22.051,10.071
		c5.722,6.784,14.086,10.676,22.949,10.676s17.228-3.892,22.95-10.677C329.346,373.892,337.383,370.221,346,370.221z"/>
	<path style="fill:#FEDB41;" d="M181.735,152.036c-2.859,0-5.749-0.816-8.307-2.521c-14.236-9.491-22.735-25.372-22.735-42.481
		s8.499-32.99,22.735-42.48c5.871-3.914,9.376-10.837,9.376-18.52c0-7.682-3.505-14.605-9.376-18.519
		c-6.894-4.595-8.756-13.908-4.16-20.801c4.595-6.893,13.908-8.756,20.801-4.16c14.236,9.49,22.735,25.745,22.735,43.48
		s-8.499,33.99-22.735,43.481c-5.958,3.972-9.376,10.358-9.376,17.519c0,7.161,3.418,13.547,9.376,17.52
		c6.894,4.595,8.756,13.908,4.16,20.801C191.34,149.69,186.582,152.036,181.735,152.036z"/>
	<path style="fill:#FEDB41;" d="M256.735,152.036c-2.859,0-5.749-0.816-8.307-2.521c-14.236-9.491-22.735-25.372-22.735-42.481
		s8.499-32.99,22.735-42.48c5.871-3.914,9.376-10.837,9.376-18.52c0-7.682-3.505-14.605-9.376-18.519
		c-6.894-4.595-8.756-13.908-4.16-20.801c4.595-6.893,13.908-8.756,20.801-4.16c14.236,9.49,22.735,25.745,22.735,43.48
		s-8.499,33.99-22.735,43.481c-5.958,3.972-9.376,10.358-9.376,17.519c0,7.161,3.418,13.547,9.376,17.52
		c6.894,4.595,8.756,13.908,4.16,20.801C266.34,149.69,261.582,152.036,256.735,152.036z"/>
	<path style="fill:#FEDB41;" d="M331.735,152.036c-2.859,0-5.749-0.816-8.307-2.521c-14.236-9.491-22.735-25.372-22.735-42.481
		s8.499-32.99,22.735-42.48c5.871-3.914,9.376-10.837,9.376-18.52c0-7.682-3.505-14.605-9.376-18.519
		c-6.894-4.595-8.756-13.908-4.16-20.801c4.595-6.893,13.907-8.756,20.801-4.16c14.236,9.49,22.735,25.745,22.735,43.48
		s-8.499,33.99-22.735,43.481c-5.958,3.972-9.376,10.358-9.376,17.519c0,7.161,3.418,13.547,9.376,17.52
		c6.894,4.595,8.756,13.908,4.16,20.801C341.34,149.69,336.582,152.036,331.735,152.036z"/>
</g>
<g>
	<path style="fill:#FEA832;" d="M256,300.968c-8.284,0-15-6.716-15-15v-30c0-8.284,6.716-15,15-15s15,6.716,15,15v30
		C271,294.252,264.284,300.968,256,300.968z"/>
	<path style="fill:#FEA832;" d="M346,300.968c-3.839,0-7.678-1.465-10.606-4.393l-30-30c-5.858-5.858-5.858-15.355,0-21.213
		c5.857-5.857,15.355-5.857,21.213,0l30,30c5.858,5.858,5.858,15.355,0,21.213C353.678,299.503,349.839,300.968,346,300.968z"/>
	<path style="fill:#FEA832;" d="M166,300.968c-3.839,0-7.678-1.465-10.606-4.393c-5.858-5.858-5.858-15.355,0-21.213l30-30
		c5.857-5.857,15.355-5.857,21.213,0c5.858,5.858,5.858,15.355,0,21.213l-30,30C173.678,299.503,169.839,300.968,166,300.968z"/>
</g>
<g>
</g>
<g>
</g>
<g>
</g>
<g>
</g>
<g>
</g>
<g>
</g>
<g>
</g>
<g>
</g>
<g>
</g>
<g>
</g>
<g>
</g>
<g>
</g>
<g>
</g>
<g>
</g>
<g>
</g>
</svg>
